<svg
  width="22"
  height="26"
  viewBox="0 0 22 26"
  fill="none"
  xmlns="http://www.w3.org/2000/svg"
>
  <path
    d="M21.7534 6.08379L16.5049 3.07497L11.2565 0.0661547C11.1085 -0.0220516 10.9112 -0.0220516 10.7632 0.0661547L0.256502 6.09359C0.0986547 6.18179 0.00986547 6.3386 0.00986547 6.51502L0 18.5601C0 18.7365 0.0986547 18.8933 0.246637 18.9815L10.7534 24.9991C10.8323 25.0383 10.9112 25.0677 11 25.0677C11.0888 25.0677 11.1677 25.0481 11.2466 24.9991L21.7534 18.9717C21.9013 18.8835 22 18.7267 22 18.5503V6.50521C22 6.3288 21.9112 6.17199 21.7534 6.08379ZM16.7516 15.267V9.80805L21.0135 7.35788V17.7074L16.7516 15.267ZM5.2583 9.80805V15.267L0.986547 17.7172L0.996413 7.35788L5.2583 9.80805ZM20.5202 6.50521L6.24484 14.6986V9.80805L16.2583 4.06484L20.5202 6.50521ZM11.0099 1.05603L15.2717 3.4964L5.75157 8.95539L1.48969 6.50521L11.0099 1.05603ZM1.47982 18.5601L15.765 10.3667V15.2572L5.7417 21.0103L1.47982 18.5601ZM11 24.0191L6.72825 21.5689L16.2484 16.1099L20.5202 18.5601L11 24.0191Z"
    fill="currentColor"
  />
</svg>
